<?xml version="1.0" standalone="no"?>
<!DOCTYPE svg PUBLIC "-//W3C//DTD SVG 20010904//EN"
 "http://www.w3.org/TR/2001/REC-SVG-20010904/DTD/svg10.dtd">
<svg version="1.0" xmlns="http://www.w3.org/2000/svg"
 width="260.000000pt" height="260.000000pt" viewBox="0 0 260.000000 260.000000"
 preserveAspectRatio="xMidYMid meet">
<metadata>
Created by potrace 1.11, written by Peter Selinger 2001-2013
</metadata>
<g transform="translate(0.000000,260.000000) scale(0.100000,-0.100000)"
fill="#000000" stroke="none">
<path d="M2135 2521 c-44 -20 -132 -94 -212 -177 l-53 -55 -152 -4 c-233 -5
-469 -59 -663 -151 -44 -21 -84 -38 -90 -37 -5 0 -98 58 -205 128 -247 163
-309 186 -362 138 -50 -45 -83 -205 -81 -388 2 -128 33 -269 85 -374 28 -59
32 -76 33 -166 2 -90 6 -111 42 -207 29 -77 37 -110 29 -116 -6 -5 -99 -44
-207 -86 -116 -45 -205 -86 -217 -99 -41 -43 -10 -145 53 -176 61 -30 240 -13
358 34 52 21 54 20 60 -22 26 -162 132 -334 248 -405 49 -30 147 -65 199 -71
54 -7 41 -1 81 -37 33 -29 80 -48 132 -52 15 -1 46 -20 69 -41 55 -51 80 -63
164 -80 138 -29 239 -7 301 66 17 21 41 37 62 41 19 3 49 18 68 32 71 54 141
63 233 31 25 -8 58 -13 73 -10 16 3 27 1 27 -6 0 -18 53 -38 93 -35 95 9 180
99 207 221 28 124 2 310 -60 424 -11 20 -22 54 -25 75 -6 45 -17 85 -38 135
l-16 35 47 18 c51 18 73 42 90 96 15 48 26 167 25 274 -2 143 -32 176 -161
176 -34 0 -62 3 -63 8 0 4 -2 16 -4 27 -16 85 -19 228 -11 655 1 52 -2 111 -6
130 -14 67 -74 88 -153 51z"/>
</g>
</svg>
